<svg version="1.1" xmlns="http://www.w3.org/2000/svg" style="display: block;" viewBox="0 0 2048 2048" width="1024" height="1024" preserveAspectRatio="none">
<path transform="translate(0,0)" fill="rgb(4,76,249)" d="M 0 0 L 375.47 0 L 1678.46 0 L 2048 0 L 2048 378.371 L 2048 1669.48 L 2048 2048 L 1674.67 2048 L 377.325 2048 L 0 2048 L 0 1668.68 L 0 374.223 L 0 0 z"/>
<path transform="translate(0,0)" fill="rgb(244,244,243)" d="M 1674.67 2048 C 1686.38 2045.65 1703.99 2044.92 1718.74 2042.05 C 1780.66 2030.51 1839.03 2004.67 1889.2 1966.57 C 1961.98 1912.23 2016.85 1827.06 2037.8 1738.7 C 2044.18 1711.76 2044.26 1695.23 2048 1669.48 L 2048 2048 L 1674.67 2048 z"/>
<path transform="translate(0,0)" fill="rgb(244,244,243)" d="M 0 1668.68 L 0.167092 1669.62 C 4.51999 1695.05 3.97717 1710.84 10.5775 1738.91 C 33.5232 1835.19 90.9218 1919.74 171.939 1976.61 C 217.675 2009.29 270.079 2031.44 325.391 2041.47 C 339.196 2043.89 368.628 2045.81 377.325 2048 L 0 2048 L 0 1668.68 z"/>
<path transform="translate(0,0)" fill="rgb(244,244,243)" d="M 1678.46 0 L 2048 0 L 2048 378.371 C 2044.02 363.184 2043.81 339.68 2040.23 322.59 C 2028.88 268.47 2005.11 211.612 1973.04 166.62 C 1918.38 90.1614 1838.71 35.2271 1747.81 11.3326 C 1721.02 4.57239 1704.36 4.3191 1678.46 0 z"/>
<path transform="translate(0,0)" fill="rgb(244,244,243)" d="M 0 0 L 375.47 0 C 345.193 4.47618 323.387 5.1296 292.852 13.3518 C 211.39 35.2873 131.07 90.1396 80.9075 157.844 C 44.6158 206.249 19.6087 262.157 7.71702 321.476 C 4.3115 338.549 3.11897 359.871 0 374.223 L 0 0 z"/>
<path transform="translate(0,0)" fill="rgb(244,244,243)" d="M 965.296 246.427 C 974.23 245.404 991.669 245.813 1000.93 245.828 C 1058.68 245.854 1110.2 257.036 1164.63 276.862 C 1212.32 294.233 1278.17 331.331 1328.22 303.066 C 1347.16 292.366 1355.43 266.868 1360.03 246.965 L 1396.54 247.028 L 1396.87 691.422 L 1350.25 691.048 C 1338.09 531.01 1257.74 364.899 1098.87 308.374 C 977.239 265.101 812.89 302.667 767.423 435.608 C 756.811 466.733 753.309 499.84 757.175 532.496 C 769.437 643.352 865.93 714.508 955.496 765.45 C 1011.56 797.339 1068.15 829.807 1124.84 860.597 C 1265.56 937.031 1416.42 1014.38 1488.41 1166.01 C 1538.5 1271.5 1548.82 1381.3 1510.12 1492.42 C 1470.23 1608.1 1385.36 1702.79 1274.73 1755.07 C 1128.69 1825.36 986.428 1816.48 836.777 1764.18 C 825.169 1759.67 813.94 1754.99 802.168 1750.34 C 753.478 1731.11 694.293 1697.68 643.654 1729.75 C 619.829 1744.84 608.905 1772.64 603.36 1799.05 C 590.954 1799.09 578.549 1798.9 566.15 1798.48 L 566.024 1287.99 C 579.865 1288.06 593.705 1287.84 607.537 1287.34 C 617.813 1405.8 676.273 1543.24 761.057 1627.52 C 834.658 1700.68 938.467 1752.25 1043.68 1751.41 C 1121.82 1750.78 1200.28 1725.99 1256.43 1669.34 C 1333.55 1590.54 1351.47 1466.14 1313.46 1364.55 C 1308.98 1352.55 1299.36 1336.1 1299.11 1323.83 C 1298.46 1291.93 1298.63 1259.9 1298.58 1227.98 L 1298.2 1027.26 C 1278.14 1026.92 1258.08 1027.06 1238.04 1027.66 L 1238 988.449 C 1141.28 1013.56 1079.83 1051.57 1024.44 1135.82 L 1021.27 1131.28 C 979.079 1071.25 934.943 1030.8 867.147 1001.37 C 859.03 997.845 827.064 982.639 821.472 987.306 C 821.14 990.216 821.463 989.898 820.345 992.436 C 804.776 982.639 791.107 969.004 776.883 957.925 C 756.677 942.188 738.389 926.828 719.176 910.189 C 637.656 839.595 591.346 755.876 585.513 647.005 C 580.106 546.097 616.321 450.939 683.584 375.718 C 756.691 293.961 857.343 252.937 965.296 246.427 z"/>
<path transform="translate(0,0)" fill="rgb(244,244,243)" d="M 761.187 1044.12 C 793.669 1046.1 822.122 1050.36 853.205 1062.86 C 915.491 1087.89 984.623 1125.29 1012.06 1190.11 C 1013.53 1193.6 1013.15 1220.64 1013.17 1226.32 L 1013.24 1295.62 L 1013.64 1581.9 C 991.103 1544.13 966.21 1525.52 927.967 1505.15 C 872.729 1475.72 824.34 1465.77 761.83 1466.17 L 761.187 1044.12 z"/>
<path transform="translate(0,0)" fill="rgb(244,244,243)" d="M 1276.86 1046.52 C 1279 1049.25 1278.06 1438.9 1278.02 1465.87 C 1191.79 1467 1080.31 1503.59 1036.18 1582.71 C 1033.33 1555.23 1035.17 1516.97 1035.24 1488.47 L 1035.72 1330.58 L 1035.53 1234.3 C 1035.54 1227.57 1034.92 1195.77 1036.62 1191.02 C 1066.67 1107.04 1196.94 1049.16 1276.86 1046.52 z"/>
</svg>